<svg xmlns="http://www.w3.org/2000/svg" xmlns:xlink="http://www.w3.org/1999/xlink" viewBox="0 0 785.25 188.43"><defs><style>.cls-1{fill:#242a54;}.cls-2{fill:#068a9b;}.cls-3{fill:#f29300;filter:url(#filter);}</style><filter id="filter" x="670.11" y="19.76" width="93" height="131" filterUnits="userSpaceOnUse"><feOffset dy="3" input="SourceAlpha"/><feGaussianBlur stdDeviation="2" result="blur"/><feFlood/><feComposite operator="in" in2="blur"/><feComposite in="SourceGraphic"/></filter></defs><g id="Layer_2" data-name="Layer 2"><g id="Layer_1-2" data-name="Layer 1"><path class="cls-1" d="M7.17,178.82a17.94,17.94,0,0,1-5.38-12.54q-.25-26.11-1-74L0,20.36A17.46,17.46,0,0,1,5.12,7.69,17.29,17.29,0,0,1,17.66,2.31a17.09,17.09,0,0,1,12.68,5,17.81,17.81,0,0,1,5.5,12.55l.77,67.07.77,64.51q12.54,0,36.48-.26t35.2-.25a17.73,17.73,0,0,1,12.67,5A16.18,16.18,0,0,1,127,168.07a17,17,0,0,1-5.25,12.42,17.27,17.27,0,0,1-12.67,5.24q-8.46,0-43.78.26-35.58.25-44,0A17.68,17.68,0,0,1,7.17,178.82Z"/><path class="cls-1" d="M165.89,179.08a59.73,59.73,0,0,1-23.43-23.3,65.63,65.63,0,0,1-8.06-32.25q0-22.27,8.19-38.53a62.89,62.89,0,0,1,23.55-25.73Q181.5,49.81,201,49.8q20,0,34.17,8.19a53.33,53.33,0,0,1,21.38,22.14,67.1,67.1,0,0,1,7.17,31.11q0,8.7-5.63,13.57t-15.11,5.63q-19.2,1.78-34,1.79-14.09,0-30.21-.77l-9-.25q1.53,12.54,9.85,19.58t25.22,6.53a41.13,41.13,0,0,0,12.29-1.92,23.8,23.8,0,0,0,8.19-5l4.35-4.36a17.63,17.63,0,0,1,5.12-3.58,16.72,16.72,0,0,1,6.91-1.28,15.15,15.15,0,0,1,11.14,4.48A14.26,14.26,0,0,1,257.28,156q0,8.19-8.19,15.61T228,183.43a81.81,81.81,0,0,1-26.24,4.35Q181.24,187.78,165.89,179.08Zm37.89-72.45q17.66-.25,25.85-2.3-.51-11-6.53-17.67t-21.63-6.4q-13,.26-21.25,5.89t-10,18.94A207.47,207.47,0,0,0,203.78,106.63Z"/><path class="cls-1" d="M311.81,172.17a2.83,2.83,0,0,0-.26-1.28q-16.38-54-36.61-95.75A17.21,17.21,0,0,1,281.6,52a16.08,16.08,0,0,1,12.8-1.53,15.85,15.85,0,0,1,10,8.32q14.08,29.17,27.65,65Q346.88,86.15,361.47,59a17.82,17.82,0,0,1,9.47-7.93q5.9-2.05,11.78,1.66a16.84,16.84,0,0,1,5.37,23.43l-5.37,11.52-18.18,37.88-4.09,9-4.36,10.24c-2,4.78-3.37,8-4,9.6s-2,5.25-4.23,10.88l-4.09,10a17,17,0,0,1-9.09,9.09,16.57,16.57,0,0,1-12.93.12A17,17,0,0,1,311.81,172.17Z"/><path class="cls-1" d="M429.82,179.08a59.63,59.63,0,0,1-23.42-23.3,65.53,65.53,0,0,1-8.07-32.25q0-22.27,8.19-38.53a62.91,62.91,0,0,1,23.56-25.73q15.36-9.47,34.81-9.47,20,0,34.18,8.19a53.31,53.31,0,0,1,21.37,22.14,67.1,67.1,0,0,1,7.17,31.11q0,8.7-5.63,13.57t-15.1,5.63q-19.2,1.78-34.05,1.79-14.08,0-30.21-.77l-9-.25q1.53,12.54,9.86,19.58t25.21,6.53A41.13,41.13,0,0,0,481,155.4a23.8,23.8,0,0,0,8.19-5l4.35-4.36a17.63,17.63,0,0,1,5.12-3.58,16.77,16.77,0,0,1,6.92-1.28,15.13,15.13,0,0,1,11.13,4.48A14.22,14.22,0,0,1,521.21,156q0,8.19-8.19,15.61T491.9,183.43a81.81,81.81,0,0,1-26.24,4.35Q445.17,187.78,429.82,179.08Zm37.89-72.45q17.66-.25,25.85-2.3-.51-11-6.52-17.67t-21.64-6.4q-13,.26-21.24,5.89t-10,18.94A207.47,207.47,0,0,0,467.71,106.63Z"/><path class="cls-1" d="M579.71,183.43a17,17,0,0,1-12.67,5,17.33,17.33,0,0,1-12.55-5.37,17.5,17.5,0,0,1-5.12-12.68q.51,0,.26-73.72l-.26-78.34a17.26,17.26,0,0,1,5.25-12.67,17.91,17.91,0,0,1,25.34,0,17.26,17.26,0,0,1,5.25,12.67q0,20.49.13,50.94t.13,55.17q0,24.7-.26,46.47A17.77,17.77,0,0,1,579.71,183.43Z"/><rect class="cls-1" x="611.73" width="173.52" height="188.42" rx="32"/><path class="cls-2" d="M667.54,100l-28.41-26.1a15.7,15.7,0,0,1-.47-22.66h0a15.69,15.69,0,0,1,21.72-.45L709.14,95.6a13.83,13.83,0,0,1-.07,20.43l-49.37,44.8a15.6,15.6,0,0,1-21.49-.52h0a15.59,15.59,0,0,1,.54-22.57l28.75-26.08A7.9,7.9,0,0,0,667.54,100Z"/><path class="cls-3" d="M723.16,88.08l28.4,26.11a15.69,15.69,0,0,1,.47,22.65h0a15.7,15.7,0,0,1-21.72.46L681.55,92.48a13.83,13.83,0,0,1,.07-20.43L731,27.25a15.59,15.59,0,0,1,21.5.52h0a15.6,15.6,0,0,1-.55,22.57L723.19,76.42A7.89,7.89,0,0,0,723.16,88.08Z"/></g></g></svg>